<?xml version="1.0" encoding="UTF-8" standalone="no"?>
<!-- Created with Inkscape (http://www.inkscape.org/) -->

<svg
   xmlns:dc="http://purl.org/dc/elements/1.1/"
   xmlns:cc="http://creativecommons.org/ns#"
   xmlns:rdf="http://www.w3.org/1999/02/22-rdf-syntax-ns#"
   xmlns:svg="http://www.w3.org/2000/svg"
   xmlns="http://www.w3.org/2000/svg"
   xmlns:sodipodi="http://sodipodi.sourceforge.net/DTD/sodipodi-0.dtd"
   xmlns:inkscape="http://www.inkscape.org/namespaces/inkscape"
   height="488.78125"
   id="svg1"
   inkscape:version="0.48.4 r9939"
   sodipodi:docname="power.svg"
   sodipodi:version="0.32"
   width="488.77625"
   version="1.1">
  <metadata
     id="metadata3">
    <rdf:RDF>
      <cc:Work
         rdf:about="">
        <dc:title>IO</dc:title>
        <dc:description>IO power symbol</dc:description>
        <dc:subject>
          <rdf:Bag>
            <rdf:li>icon</rdf:li>
            <rdf:li>symbol</rdf:li>
            <rdf:li>power</rdf:li>
            <rdf:li>computer</rdf:li>
            <rdf:li>button</rdf:li>
            <rdf:li>io</rdf:li>
          </rdf:Bag>
        </dc:subject>
        <dc:publisher>
          <cc:Agent
             rdf:about="http://www.openclipart.org">
            <dc:title>Open Clip Art Library</dc:title>
          </cc:Agent>
        </dc:publisher>
        <dc:creator>
          <cc:Agent>
            <dc:title>Anthony Liekens</dc:title>
          </cc:Agent>
        </dc:creator>
        <dc:rights>
          <cc:Agent>
            <dc:title>Anthony Liekens</dc:title>
          </cc:Agent>
        </dc:rights>
        <dc:date />
        <dc:format>image/svg+xml</dc:format>
        <dc:type
           rdf:resource="http://purl.org/dc/dcmitype/StillImage" />
        <cc:license
           rdf:resource="http://web.resource.org/cc/PublicDomain" />
        <dc:language>en</dc:language>
      </cc:Work>
      <cc:License
         rdf:about="http://web.resource.org/cc/PublicDomain">
        <cc:permits
           rdf:resource="http://web.resource.org/cc/Reproduction" />
        <cc:permits
           rdf:resource="http://web.resource.org/cc/Distribution" />
        <cc:permits
           rdf:resource="http://web.resource.org/cc/DerivativeWorks" />
      </cc:License>
    </rdf:RDF>
  </metadata>
  <defs
     id="defs3" />
  <sodipodi:namedview
     bordercolor="#666666"
     borderopacity="1.0"
     id="base"
     inkscape:current-layer="layer1"
     inkscape:cx="315.06054"
     inkscape:cy="117.23603"
     inkscape:document-units="px"
     inkscape:grid-bbox="false"
     inkscape:pageopacity="0.0"
     inkscape:pageshadow="2"
     inkscape:zoom="0.35"
     pagecolor="#ffffff"
     showgrid="true"
     fit-margin-top="0"
     fit-margin-left="22.94"
     fit-margin-right="22.93"
     fit-margin-bottom="0"
     inkscape:window-width="1680"
     inkscape:window-height="1009"
     inkscape:window-x="0"
     inkscape:window-y="23"
     inkscape:window-maximized="1" />
  <g
     id="layer1"
     inkscape:groupmode="layer"
     inkscape:label="Layer 1"
     transform="translate(-65.65375,-166.53125)">
    <path
       d="M 310.0625,655.3125 C 187.81687,655.31251 88.593753,556.08766 88.59375,433.84375 88.593749,372.95824 113.30647,317.90152 153.125,277.875 l 0.1875,0.1875 c 8.04967,-11.1131 21.05123,-18.40627 35.8125,-18.40625 24.44877,0 44.3125,19.83236 44.3125,44.28125 0,14.99209 -7.49714,28.20383 -18.90625,36.21875 l 0.15625,0.15625 c -23.9259,24.09666 -38.90625,56.9975 -38.90625,93.53125 0,73.70089 60.11044,133.53125 134.15625,133.53125 74.04582,10e-6 134.125,-59.83035 134.125,-133.53125 -10e-6,-33.34259 -12.54037,-63.57981 -32.90625,-86.9375 -12.11468,-7.90659 -20.18749,-21.52681 -20.1875,-37.0625 0,-24.44889 19.86373,-44.31252 44.3125,-44.3125 11.95254,0 22.74833,4.82659 30.71875,12.53125 l 0.625,-0.625 c 40.05216,40.05678 64.87499,95.31901 64.875,156.40625 3e-5,122.2439 -99.19186,221.46876 -221.4375,221.46875 z M 310.0313,435.375 c -24.5374,0 -44.28125,-20.10236 -44.28125,-45.09375 l 0,-178.65625 c 0,-24.99139 19.74384,-45.09375 44.28125,-45.09375 24.5374,0 44.31251,20.10233 44.3125,45.09375 l 0,178.65625 c 0,24.99139 -19.77511,45.09375 -44.3125,45.09375 z"
       id="path8"
       style="color:#000000;fill:#000000;fill-opacity:1;fill-rule:evenodd;stroke:none;stroke-width:3.80584431;marker:none;visibility:visible;display:inline"
       inkscape:connector-curvature="0" />
  </g>
</svg>
